<svg xmlns="http://www.w3.org/2000/svg" viewBox="0 0 30 30" data-id="Doc_Book_Gear" class="roadmap-icon-graphics" style="height: 50px; width: 50px;"><path class="roadmap-background-circle" d="M30,15A15,15,0,1,1,15,0,15,15,0,0,1,30,15" fill="#c0c0c0" style="fill: rgb(111, 125, 28);"></path><g class="progress-circle" transform-origin="15px 15px" transform="rotate(-90)" style="display: none; fill: rgb(255, 255, 255);"><circle class="circle-bg" stroke="#c0c0c0" fill="none" stroke-width="3" cx="15" cy="15" r="18" style="fill: none; display: inherit;"></circle><circle class="roadmap-circle-progress" stroke="#aaaaaa" fill="none" stroke-width="3" stroke-dasharray="113.0973355292" stroke-dashoffset="56.548667764616276" cx="15" cy="15" r="18" style="fill: none; display: inherit; stroke: rgb(111, 125, 28);"></circle></g><g style="fill: rgb(255, 255, 255);"><path d="m24.63,13.52v-1.51c-.52-.08-1.04-.17-1.56-.25-.38-.06-.7-.32-.83-.68-.09-.26-.19-.52-.31-.76-.16-.34-.11-.74.11-1.05.3-.42.61-.85.91-1.27l-2.37-2.37c-.41.3-.82.59-1.23.89-.31.23-.73.27-1.07.1-.27-.13-.54-.25-.82-.35-.36-.13-.61-.45-.67-.82-.08-.52-.17-1.03-.25-1.55h-3.35c-.08.51-.17,1.01-.25,1.52-.06.38-.32.7-.68.82-.3.1-.58.22-.86.35-.34.17-.75.12-1.06-.11-.41-.29-.81-.59-1.22-.88l-2.37,2.37c.29.41.58.82.88,1.22.22.31.27.72.1,1.06-.14.28-.25.57-.36.87-.12.36-.45.62-.83.68l-1.44.23v13.24s7.04-2.35,9.39,0v-11.74c-.98-.98-2.78-1.14-4.54-1,.49-2.24,2.49-3.91,4.87-3.91s4.37,1.67,4.87,3.9c-1.72-.13-3.46.05-4.42,1.01v11.74c2.35-2.35,9.39,0,9.39,0v-11.74s0,0-.03-.01Zm-18.5,3.44s4.08-1.39,6.31-.66c-.01.4-.01.97-.01,1.24-2.25-.61-6.3.56-6.3.56v-1.14Zm6.96,2.17c0,.3.07,1.01,0,1.28-2-1.13-6.94.3-6.94.3l-.02-1.23s5-1.71,6.96-.35Zm.38,4.01c-1.62-1.65-7.34,0-7.34,0v-1.14s5.76-1.97,7.34,0v1.14Zm0-8.59v1.14c-1.62-1.65-7.34,0-7.34,0v-1.14s5.76-1.97,7.34,0Zm7.55,8.04c-1.74-.27-3.89-.36-4.78.55v-1.14h-.02c.88-1.1,3.05-.97,4.8-.65v1.24Zm1.97-2.12c-1.5-.37-5.44-1.18-6.74.15,0,0-.01-.98-.01-1.14h-.01c1.28-1.59,5.28-.61,6.77-.18,0,.37-.01.91-.01,1.17Zm-6.75-3.51c1.06-1.31,3.97-.88,5.79-.44,0,.39-.01.91-.01,1.21-1.82-.37-4.7-.73-5.77.37,0,0-.01-.98-.01-1.14Zm.06-1.27s-.06-.98-.06-1.14c1.59-1.97,7.34,0,7.34,0l.06,1.14s-5.73-1.65-7.34,0Z" fill="#fff" style="fill: rgb(255, 255, 255);"></path></g><svg x="15" y="-8" width="20" height="20" viewBox="0 0 15 15" class="roadmap-star-icon" style="display: none; fill: rgb(255, 255, 255);"><polygon points="4.29 9.3 1.07 6.17 5.51 5.52 7.5 1.5 9.48 5.52 13.93 6.17 10.71 9.3 11.47 13.72 7.5 11.63 3.53 13.72 4.29 9.3" fill="#ff9000" stroke="#fff" stroke-width="1" style="fill: rgb(255, 144, 0);"></polygon></svg><svg x="21" y="-6" width="15" height="15" viewBox="0 0 15 15" class="roadmap-exclamation-icon" style="display: none; fill: rgb(255, 255, 255);"><circle class="exclamation-mark-circle-bg" fill="#c00" cx="7" cy="7" r="7" style="fill: rgb(204, 0, 0);"></circle><circle class="exclamation-mark-circle-dot" fill="#fff" cx="7" cy="10.99" r="1.12" style="fill: rgb(255, 255, 255);"></circle><path fill="#fff" stroke="none" d="M6.38,3.88c0-.82.28-1.49,1.12-1.49s1.12.67,1.12,1.49c0,1.69-.5,4.88-1.12,4.88S6.38,5.57,6.38,3.88Z" transform="translate(-0.5 -0.5)" style="fill: rgb(255, 255, 255);"></path></svg></svg>