<svg xmlns="http://www.w3.org/2000/svg" viewBox="0 0 30 30" data-id="Doc_File_Hand" class="roadmap-icon-graphics" style="height: 50px; width: 50px;"><path class="roadmap-background-circle" d="M30,15A15,15,0,1,1,15,0,15,15,0,0,1,30,15" fill="#c0c0c0" style="fill: rgb(250, 200, 0);"></path><g class="progress-circle" transform-origin="15px 15px" transform="rotate(-90)" style="display: none; fill: rgb(255, 255, 255);"><circle class="circle-bg" stroke="#c0c0c0" fill="none" stroke-width="3" cx="15" cy="15" r="18" style="fill: none; display: inherit;"></circle><circle class="roadmap-circle-progress" stroke="#aaaaaa" fill="none" stroke-width="3" stroke-dasharray="113.0973355292" stroke-dashoffset="56.548667764616276" cx="15" cy="15" r="18" style="fill: none; display: inherit; stroke: rgb(111, 125, 28);"></circle></g><g style="fill: rgb(255, 255, 255);"><path d="M24.81,20.17l -.16.12V9.93l -4.78 -5H11.08V16.15L6.57,16,2.7,20.7c.74.71,8.07,3.84,10.05,4A33.31,33.31,0,0,0,21.53,24c3.78 -.81,4.35 -2.49,5.7 -3.64.21 -.17.12 -2.11 -2.42 -.18M19.87,5.94l4,4h -4Zm -8,0h7.2v4.79h4.79v10c -1.85.92 -3.88.61 -6.88.37 -3.6 -.29 -3.27 -1.1 -2.24 -1.63a5.52,5.52,0,0,1,4.43.13s4.33,1.42,2.92 -.46c -.81 -1.09 -8.14 -3 -9.49 -3l -.73,0Z" fill="#fff" style="fill: rgb(255, 255, 255);"></path></g><svg x="15" y="-8" width="20" height="20" viewBox="0 0 15 15" class="roadmap-star-icon" style="display: none; fill: rgb(255, 255, 255);"><polygon points="4.29 9.3 1.07 6.17 5.51 5.52 7.5 1.5 9.48 5.52 13.93 6.17 10.71 9.3 11.47 13.72 7.5 11.63 3.53 13.72 4.29 9.3" fill="#ff9000" stroke="#fff" stroke-width="1" style="fill: rgb(255, 144, 0);"></polygon></svg><svg x="21" y="-6" width="15" height="15" viewBox="0 0 15 15" class="roadmap-exclamation-icon" style="display: none; fill: rgb(255, 255, 255);"><circle class="exclamation-mark-circle-bg" fill="#c00" cx="7" cy="7" r="7" style="fill: rgb(204, 0, 0);"></circle><circle class="exclamation-mark-circle-dot" fill="#fff" cx="7" cy="10.99" r="1.12" style="fill: rgb(255, 255, 255);"></circle><path fill="#fff" stroke="none" d="M6.38,3.88c0-.82.28-1.49,1.12-1.49s1.12.67,1.12,1.49c0,1.69-.5,4.88-1.12,4.88S6.38,5.57,6.38,3.88Z" transform="translate(-0.5 -0.5)" style="fill: rgb(255, 255, 255);"></path></svg></svg>