<svg xmlns="http://www.w3.org/2000/svg" viewBox="0 0 30 30" data-id="STEM_Variables" class="roadmap-icon-graphics" style="height: 50px; width: 50px;"><path class="roadmap-background-circle" d="M30,15A15,15,0,1,1,15,0,15,15,0,0,1,30,15" fill="#c0c0c0" style="fill: rgb(65, 86, 161);"></path><g class="progress-circle" transform-origin="15px 15px" transform="rotate(-90)" style="display: none; fill: rgb(255, 255, 255);"><circle class="circle-bg" stroke="#c0c0c0" fill="none" stroke-width="3" cx="15" cy="15" r="18" style="fill: none; display: inherit;"></circle><circle class="roadmap-circle-progress" stroke="#aaaaaa" fill="none" stroke-width="3" stroke-dasharray="113.0973355292" stroke-dashoffset="56.548667764616276" cx="15" cy="15" r="18" style="fill: none; display: inherit; stroke: rgb(142, 142, 142);"></circle></g><g style="fill: rgb(255, 255, 255);"><path d="m6.45,18l-1.37-1.99-1.37,1.99h-1.72l2.24-3-2.11-3h1.74l1.34,1.96,1.32-1.96h1.6l-2.11,3,2.16,3h-1.71Z" fill="#fff" style="fill: rgb(255, 255, 255);"></path><path d="m12.36,15.47v2.28h-1.32v-2.28h-2.18v-1.18h2.18v-2.28h1.32v2.28h2.19v1.18h-2.19Z" fill="#fff" style="fill: rgb(255, 255, 255);"></path><path d="m18.96,15.47v2.28h-1.32v-2.28h-2.19v-1.18h2.19v-2.28h1.32v2.28h2.19v1.18h-2.19Z" fill="#fff" style="fill: rgb(255, 255, 255);"></path><path d="m22.91,19.2c.22.02.44.02.66,0,.18-.03.36-.08.52-.16.14-.07.26-.17.36-.3.08-.12.12-.26.12-.41.02-.1.02-.2,0-.3-.03-.07-.07-.15-.12-.21l-.17-.2-.17-.18c-.05-.08-.09-.16-.12-.24-.02-.1-.02-.21,0-.32-.02-.13-.03-.26,0-.39.07-.24.25-.43.48-.53.13-.06.27-.08.41-.08.18,0,.36.03.53.12.15.09.29.21.39.36.11.16.19.34.24.53.05.2.07.4.07.6,0,.35-.06.7-.19,1.02-.13.32-.34.61-.6.84-.29.26-.62.45-.99.57-.45.14-.92.22-1.4.21l-.03-.95Zm1.99-7.2c.14,0,.29.03.42.09.25.11.45.31.56.55.1.27.1.57,0,.84-.11.25-.31.45-.56.55-.27.1-.57.1-.84,0-.22-.12-.39-.31-.48-.54-.12-.27-.12-.57,0-.84.11-.25.31-.45.56-.55.11-.06.22-.09.34-.1Z" fill="#fff" style="fill: rgb(255, 255, 255);"></path></g><svg x="15" y="-8" width="20" height="20" viewBox="0 0 15 15" class="roadmap-star-icon" style="display: none; fill: rgb(255, 255, 255);"><polygon points="4.29 9.3 1.07 6.17 5.51 5.52 7.5 1.5 9.48 5.52 13.93 6.17 10.71 9.3 11.47 13.72 7.5 11.63 3.53 13.72 4.29 9.3" fill="#ff9000" stroke="#fff" stroke-width="1" style="fill: rgb(255, 144, 0);"></polygon></svg><svg x="21" y="-6" width="15" height="15" viewBox="0 0 15 15" class="roadmap-exclamation-icon" style="display: none; fill: rgb(255, 255, 255);"><circle class="exclamation-mark-circle-bg" fill="#c00" cx="7" cy="7" r="7" style="fill: rgb(204, 0, 0);"></circle><circle class="exclamation-mark-circle-dot" fill="#fff" cx="7" cy="10.99" r="1.12" style="fill: rgb(255, 255, 255);"></circle><path fill="#fff" stroke="none" d="M6.38,3.88c0-.82.28-1.49,1.12-1.49s1.12.67,1.12,1.49c0,1.69-.5,4.88-1.12,4.88S6.38,5.57,6.38,3.88Z" transform="translate(-0.5 -0.5)" style="fill: rgb(255, 255, 255);"></path></svg></svg>