<svg xmlns="http://www.w3.org/2000/svg" viewBox="0 0 30 30" data-id="STEM_MathSigns" class="roadmap-icon-graphics" style="height: 50px; width: 50px;"><path class="roadmap-background-circle" d="M30,15A15,15,0,1,1,15,0,15,15,0,0,1,30,15" fill="#c0c0c0" style="fill: rgb(65, 86, 161);"></path><g class="progress-circle" transform-origin="15px 15px" transform="rotate(-90)" style="display: none; fill: rgb(255, 255, 255);"><circle class="circle-bg" stroke="#c0c0c0" fill="none" stroke-width="3" cx="15" cy="15" r="18" style="fill: none; display: inherit;"></circle><circle class="roadmap-circle-progress" stroke="#aaaaaa" fill="none" stroke-width="3" stroke-dasharray="113.0973355292" stroke-dashoffset="56.548667764616276" cx="15" cy="15" r="18" style="fill: none; display: inherit; stroke: rgb(142, 142, 142);"></circle></g><g style="fill: rgb(255, 255, 255);"><path d="m11.04,11.1v3.42h-1.96v-3.42h-3.29v-1.77h3.29v-3.33h1.96v3.33h3.29v1.77h-3.29Z" fill="#fff" style="fill: rgb(255, 255, 255);"></path><path d="m17.22,11.17v-1.92h5.46v1.92h-5.46Z" fill="#fff" style="fill: rgb(255, 255, 255);"></path><path d="m11.37,20.66l2.59,2.61-1.35,1.35-2.61-2.59-2.6,2.59-1.27-1.28,2.6-2.59-2.6-2.59,1.36-1.37,2.6,2.6,2.61-2.59,1.26,1.28-2.6,2.59Z" fill="#fff" style="fill: rgb(255, 255, 255);"></path><path d="m15.69,21.6v-1.77h8.53v1.77h-8.53Zm4.23-3c-.18,0-.37-.04-.54-.1-.16-.07-.31-.17-.43-.28-.12-.11-.21-.25-.27-.41-.07-.16-.11-.33-.1-.51,0-.18.03-.36.1-.53.06-.16.15-.3.27-.42.13-.12.27-.22.43-.28.17-.07.36-.1.54-.1.18,0,.37.04.54.1.16.07.31.17.43.28.12.12.22.26.28.42.07.17.11.34.1.53,0,.18-.03.35-.1.51-.07.15-.17.29-.28.41-.13.12-.28.21-.43.28-.17.07-.35.11-.54.12v-.02Zm0,4.2c.18,0,.37.04.54.1.16.07.3.16.43.27.12.12.22.26.28.42.07.15.11.32.1.49,0,.19-.03.37-.1.54-.07.16-.16.3-.28.42-.13.12-.28.21-.43.29-.17.06-.36.09-.54.09-.18,0-.37-.03-.54-.09-.16-.07-.31-.17-.43-.29-.12-.12-.21-.26-.27-.42-.07-.17-.11-.35-.1-.54,0-.17.03-.34.1-.49.06-.16.15-.3.27-.42.13-.11.28-.2.43-.27.17-.06.36-.09.54-.09v-.02Z" fill="#fff" style="fill: rgb(255, 255, 255);"></path></g><svg x="15" y="-8" width="20" height="20" viewBox="0 0 15 15" class="roadmap-star-icon" style="display: none; fill: rgb(255, 255, 255);"><polygon points="4.29 9.3 1.07 6.17 5.51 5.52 7.5 1.5 9.48 5.52 13.93 6.17 10.71 9.3 11.47 13.72 7.5 11.63 3.53 13.72 4.29 9.3" fill="#ff9000" stroke="#fff" stroke-width="1" style="fill: rgb(255, 144, 0);"></polygon></svg><svg x="21" y="-6" width="15" height="15" viewBox="0 0 15 15" class="roadmap-exclamation-icon" style="display: none; fill: rgb(255, 255, 255);"><circle class="exclamation-mark-circle-bg" fill="#c00" cx="7" cy="7" r="7" style="fill: rgb(204, 0, 0);"></circle><circle class="exclamation-mark-circle-dot" fill="#fff" cx="7" cy="10.99" r="1.12" style="fill: rgb(255, 255, 255);"></circle><path fill="#fff" stroke="none" d="M6.38,3.88c0-.82.28-1.49,1.12-1.49s1.12.67,1.12,1.49c0,1.69-.5,4.88-1.12,4.88S6.38,5.57,6.38,3.88Z" transform="translate(-0.5 -0.5)" style="fill: rgb(255, 255, 255);"></path></svg></svg>