<svg xmlns="http://www.w3.org/2000/svg" viewBox="0 0 30 30" data-id="Other_TreasureBox" class="roadmap-icon-graphics" style="height: 50px; width: 50px;"><path class="roadmap-background-circle" d="M30,15A15,15,0,1,1,15,0,15,15,0,0,1,30,15" fill="#c0c0c0" style="fill: rgb(65, 86, 161);"></path><g class="progress-circle" transform-origin="15px 15px" transform="rotate(-90)" style="display: none; fill: rgb(255, 255, 255);"><circle class="circle-bg" stroke="#c0c0c0" fill="none" stroke-width="3" cx="15" cy="15" r="18" style="fill: none; display: inherit;"></circle><circle class="roadmap-circle-progress" stroke="#aaaaaa" fill="none" stroke-width="3" stroke-dasharray="113.0973355292" stroke-dashoffset="56.548667764616276" cx="15" cy="15" r="18" style="fill: none; display: inherit; stroke: rgb(142, 142, 142);"></circle></g><g style="fill: rgb(255, 255, 255);"><path d="M17,17.3v7.43l9.65 -2.64V14.66Zm8.31,4.13 -7,1.9V18l7 -1.9Z" fill="#fff" style="fill: rgb(255, 255, 255);"></path><path d="M22.49,6.79h.09L8.86,4.32C4.79,4,3.33,12.89,3.33,12.89l1.61.43v -.07A4.48,4.48,0,0,1,5,12.6l -.27 -.07S6,5,9.45,5.19L19.86,7.06s -1.87.23 -3.8,8.45l -2.61 -.68a4.62,4.62,0,0,1,.05.65v.1l3.08.81,10.09 -2.75s -.74 -6.37 -4.18 -6.85m -.5.94c3,0,3.66,5.49,3.66,5.49l -8.06,2.2S19,7.73,22,7.73" fill="#fff" style="fill: rgb(255, 255, 255);"></path><polygon points="13.5 16.63 13.5 17.38 14.68 17.7 14.68 23.63 4.61 20.9 4.61 14.97 4.94 15.06 4.94 14.31 3.33 13.87 3.33 21.3 15.95 24.73 15.95 17.3 13.5 16.63" fill="#fff" style="fill: rgb(255, 255, 255);"></polygon><path d="M9.22,11a2.56,2.56,0,0,0 -3.43,2.54V17l3.43.9,3.44.89V15.35A4.77,4.77,0,0,0,9.22,11m.92,6 -1.83 -.48V11.93l1.83.48Z" fill="#fff" style="fill: rgb(255, 255, 255);"></path></g><svg x="15" y="-8" width="20" height="20" viewBox="0 0 15 15" class="roadmap-star-icon" style="display: none; fill: rgb(255, 255, 255);"><polygon points="4.29 9.3 1.07 6.17 5.51 5.52 7.5 1.5 9.48 5.52 13.93 6.17 10.71 9.3 11.47 13.72 7.5 11.63 3.53 13.72 4.29 9.3" fill="#ff9000" stroke="#fff" stroke-width="1" style="fill: rgb(255, 144, 0);"></polygon></svg><svg x="21" y="-6" width="15" height="15" viewBox="0 0 15 15" class="roadmap-exclamation-icon" style="display: none; fill: rgb(255, 255, 255);"><circle class="exclamation-mark-circle-bg" fill="#c00" cx="7" cy="7" r="7" style="fill: rgb(204, 0, 0);"></circle><circle class="exclamation-mark-circle-dot" fill="#fff" cx="7" cy="10.99" r="1.12" style="fill: rgb(255, 255, 255);"></circle><path fill="#fff" stroke="none" d="M6.38,3.88c0-.82.28-1.49,1.12-1.49s1.12.67,1.12,1.49c0,1.69-.5,4.88-1.12,4.88S6.38,5.57,6.38,3.88Z" transform="translate(-0.5 -0.5)" style="fill: rgb(255, 255, 255);"></path></svg></svg>