<svg xmlns="http://www.w3.org/2000/svg" viewBox="0 0 30 30" data-id="Other_Wolf" class="roadmap-icon-graphics" style="height: 50px; width: 50px;"><path class="roadmap-background-circle" d="M30,15A15,15,0,1,1,15,0,15,15,0,0,1,30,15" fill="#c0c0c0" style="fill: rgb(65, 86, 161);"></path><g class="progress-circle" transform-origin="15px 15px" transform="rotate(-90)" style="display: none; fill: rgb(255, 255, 255);"><circle class="circle-bg" stroke="#c0c0c0" fill="none" stroke-width="3" cx="15" cy="15" r="18" style="fill: none; display: inherit;"></circle><circle class="roadmap-circle-progress" stroke="#aaaaaa" fill="none" stroke-width="3" stroke-dasharray="113.0973355292" stroke-dashoffset="56.548667764616276" cx="15" cy="15" r="18" style="fill: none; display: inherit; stroke: rgb(142, 142, 142);"></circle></g><g style="fill: rgb(255, 255, 255);"><path d="m24.58,17.9c0-.61-1.68-1.76,0-1.64-.09-.28-1.96-2.96-2.47-3.36-.04-1.11,2.06-3.63-1.3-7.52-1.54-.24-3.28,3.67-3.28,3.67,0,0-1.01-.6-2.52-.66-1.52.05-2.52.66-2.52.66,0,0-1.73-3.91-3.29-3.68-3.36,3.88-1.26,6.4-1.3,7.52-.51.41-2.39,3.08-2.48,3.36,1.68-.12,0,1.01,0,1.64,2.14-.47,1.18.36,1.18,1.52,1.12-.59.78.21.78.97,1.65-.83,3.58-.12,3.9.73.75,2.07,2.91,3.48,3.73,3.48s2.97-1.41,3.73-3.48c.32-.85,2.25-1.56,3.9-.73,0-.78-.34-1.56.78-.97,0-1.16-.96-1.98,1.19-1.52h-.03Zm-15.95-5.46c-1.5-2.86.33-6.36.79-6.36s2.37,3.63,2.37,3.63c-.21,1.26-1.62,2.41-3.16,2.73Zm4.53-.66c1.58.8,1.16,2.02.36,3.63-.28-1.24-.63-1.82-1.5-2.33-.78-.47-2.58.1-2.58.1.24-.84,2.64-1.95,3.72-1.41Zm-.59,5.3c-.78,0-2.48,0-2.74-2.9,2.57-1.6,2.96,1.83,2.74,2.9Zm2.41,6.04c-1.8-.21-1.5-1.59-1.5-2.01s.9-.51,1.5-.54c.6.03,1.5.1,1.5.54s.32,1.8-1.5,2.01Zm2.41-6.05c-.21-1.07.2-4.5,2.74-2.9-.27,2.9-1.97,2.9-2.74,2.9Zm.55-3.99c-.85.51-1.22,1.09-1.5,2.33-.78-1.6-1.22-2.84.36-3.63,1.08-.54,3.48.55,3.72,1.41,0,0-1.8-.57-2.58-.1Zm3.39-.63c-1.54-.32-2.96-1.47-3.16-2.73,0,0,1.9-3.63,2.37-3.63s2.29,3.51.79,6.36Z" fill="#fff" style="fill: rgb(255, 255, 255);"></path></g><svg x="15" y="-8" width="20" height="20" viewBox="0 0 15 15" class="roadmap-star-icon" style="display: none; fill: rgb(255, 255, 255);"><polygon points="4.29 9.3 1.07 6.17 5.51 5.52 7.5 1.5 9.48 5.52 13.93 6.17 10.71 9.3 11.47 13.72 7.5 11.63 3.53 13.72 4.29 9.3" fill="#ff9000" stroke="#fff" stroke-width="1" style="fill: rgb(255, 144, 0);"></polygon></svg><svg x="21" y="-6" width="15" height="15" viewBox="0 0 15 15" class="roadmap-exclamation-icon" style="display: none; fill: rgb(255, 255, 255);"><circle class="exclamation-mark-circle-bg" fill="#c00" cx="7" cy="7" r="7" style="fill: rgb(204, 0, 0);"></circle><circle class="exclamation-mark-circle-dot" fill="#fff" cx="7" cy="10.99" r="1.12" style="fill: rgb(255, 255, 255);"></circle><path fill="#fff" stroke="none" d="M6.38,3.88c0-.82.28-1.49,1.12-1.49s1.12.67,1.12,1.49c0,1.69-.5,4.88-1.12,4.88S6.38,5.57,6.38,3.88Z" transform="translate(-0.5 -0.5)" style="fill: rgb(255, 255, 255);"></path></svg></svg>