<svg xmlns="http://www.w3.org/2000/svg" viewBox="0 0 30 30" data-id="Tech_Screens" class="roadmap-icon-graphics" style="height: 50px; width: 50px;"><path class="roadmap-background-circle" d="M30,15A15,15,0,1,1,15,0,15,15,0,0,1,30,15" fill="#c0c0c0" style="fill: rgb(153, 0, 0);"></path><g class="progress-circle" transform-origin="15px 15px" transform="rotate(-90)" style="display: none; fill: rgb(255, 255, 255);"><circle class="circle-bg" stroke="#c0c0c0" fill="none" stroke-width="3" cx="15" cy="15" r="18" style="fill: none; display: inherit;"></circle><circle class="roadmap-circle-progress" stroke="#aaaaaa" fill="none" stroke-width="3" stroke-dasharray="113.0973355292" stroke-dashoffset="56.548667764616276" cx="15" cy="15" r="18" style="fill: none; display: inherit; stroke: rgb(153, 0, 0);"></circle></g><g style="fill: rgb(255, 255, 255);"><g style="fill: rgb(255, 255, 255);"><rect x="14.86" y="17.01" width="4.62" height=".3" transform="translate(-6.75 21.33) rotate(-54.86)" fill="#fff" style="fill: rgb(255, 255, 255);"></rect><rect x="15.12" y="17.61" width="6.72" height=".3" transform="translate(-6.68 22.65) rotate(-54.86)" fill="#fff" style="fill: rgb(255, 255, 255);"></rect><path d="m21.95,12.2h-13.89c-.96,0-1.75.78-1.75,1.75v8.46c0,.96.78,1.75,1.75,1.75h13.89c.96,0,1.75-.78,1.75-1.75v-8.46c0-.96-.78-1.75-1.75-1.75Zm-6.95,11.34c-.34,0-.61-.27-.61-.61s.27-.61.61-.61.61.27.61.61-.27.61-.61.61Zm6.85-1.86H7.98v-8.08h13.87v8.08Z" fill="#fff" style="fill: rgb(255, 255, 255);"></path><path d="m19.15,26.25v-.03c0-.23-.57-.42-1.28-.42h-.02v-.64h-5.68v.64h-.04c-.71,0-1.28.19-1.28.42v.12h0v.45h8.3v-.54h0Z" fill="#fff" style="fill: rgb(255, 255, 255);"></path></g><g style="fill: rgb(255, 255, 255);"><path d="m27.98,17.35v-.41h0v-.02c0-.18-.44-.32-.97-.32h-.02v-.49h-2.32v1.24h3.31Z" fill="#fff" style="fill: rgb(255, 255, 255);"></path><path d="m29.86,12.95h-5.35c.07.23.12.46.14.71.07-.05.16-.08.25-.08.25,0,.46.21.46.46s-.21.46-.46.46c-.09,0-.16-.03-.23-.07v.79h4.78c.09,0,.18,0,.28-.01.1,0,.19-.02.28-.04v-.16c0-.35-.01-.61-.03-.85-.01-.18-.03-.44-.06-.76-.02-.17-.04-.32-.05-.44h-.01Z" fill="#fff" style="fill: rgb(255, 255, 255);"></path><path d="m17.53,7.44v3.54h1.76v-5.06h7.65c-.17-.22-.35-.45-.55-.69-.2-.23-.4-.45-.59-.65h-5.41c-1.58,0-2.86,1.28-2.86,2.86Z" fill="#fff" style="fill: rgb(255, 255, 255);"></path><rect x="24.77" y="8.72" width="3.73" height=".22" transform="translate(4.08 25.53) rotate(-54.86)" fill="#fff" style="fill: rgb(255, 255, 255);"></rect></g><g style="fill: rgb(255, 255, 255);"><rect x="4.7" y="8.78" width="3.61" height=".23" transform="translate(-4.51 9.1) rotate(-54.86)" fill="#fff" style="fill: rgb(255, 255, 255);"></rect><rect x="4.9" y="9.25" width="5.26" height=".23" transform="translate(-4.46 10.13) rotate(-54.86)" fill="#fff" style="fill: rgb(255, 255, 255);"></rect><path d="m10.44,5.93v5.05h2.02v-3.53c0-1.58-1.28-2.86-2.86-2.86h-5.42c-.19.2-.39.41-.59.65-.2.23-.39.46-.56.69h7.41Z" fill="#fff" style="fill: rgb(255, 255, 255);"></path><path d="m5.3,15.22v-.8c-.07.04-.15.07-.23.07-.25,0-.46-.21-.46-.46s.21-.46.46-.46c.1,0,.18.04.25.09.01-.25.06-.48.14-.71H.15c-.01.09-.03.21-.04.35-.02.16-.04.39-.06.66,0,.09-.02.23-.02.42,0,.22,0,.4,0,.52v.26c.08.02.18.03.28.04s.2.01.28.01h4.74-.02Z" fill="#fff" style="fill: rgb(255, 255, 255);"></path><path d="m2.83,16.12v.49h-.03c-.54,0-.97.14-.97.32v.09h0v.34h3.48v-1.24h-2.48Z" fill="#fff" style="fill: rgb(255, 255, 255);"></path></g></g><svg x="15" y="-8" width="20" height="20" viewBox="0 0 15 15" class="roadmap-star-icon" style="display: none; fill: rgb(255, 255, 255);"><polygon points="4.29 9.3 1.07 6.17 5.51 5.52 7.5 1.5 9.48 5.52 13.93 6.17 10.71 9.3 11.47 13.72 7.5 11.63 3.53 13.72 4.29 9.3" fill="#ff9000" stroke="#fff" stroke-width="1" style="fill: rgb(255, 144, 0);"></polygon></svg><svg x="21" y="-6" width="15" height="15" viewBox="0 0 15 15" class="roadmap-exclamation-icon" style="display: none; fill: rgb(255, 255, 255);"><circle class="exclamation-mark-circle-bg" fill="#c00" cx="7" cy="7" r="7" style="fill: rgb(204, 0, 0);"></circle><circle class="exclamation-mark-circle-dot" fill="#fff" cx="7" cy="10.99" r="1.12" style="fill: rgb(255, 255, 255);"></circle><path fill="#fff" stroke="none" d="M6.38,3.88c0-.82.28-1.49,1.12-1.49s1.12.67,1.12,1.49c0,1.69-.5,4.88-1.12,4.88S6.38,5.57,6.38,3.88Z" transform="translate(-0.5 -0.5)" style="fill: rgb(255, 255, 255);"></path></svg></svg>